<svg width="371" height="81" fill="none" xmlns="http://www.w3.org/2000/svg"><path fill-rule="evenodd" clip-rule="evenodd" d="M0 52.925 54.513 0v17.778a3.82 3.82 0 0 1-1.17 2.74L9.984 62.617 0 52.925Zm16.679 16.193 37.834-36.732v17.778a3.82 3.82 0 0 1-1.17 2.74L36.646 69.119l3.286 3.19L49.914 82H29.948l-3.286-3.19-9.983-9.692Zm344.269-16.281 9.692 6.685c-4.551 5.834-11.65 9.587-19.625 9.587-13.736 0-24.872-11.13-24.872-24.857 0-13.729 11.136-24.857 24.872-24.857 7.975 0 15.074 3.752 19.625 9.586l-9.692 6.685c-2.386-2.899-5.953-4.745-9.933-4.745-7.168 0-12.999 5.98-12.999 13.33 0 7.351 5.831 13.331 12.999 13.331 3.98 0 7.547-1.846 9.933-4.745ZM98.202 39.529h20.051l-3.831 10.937h-16.22v18.643H86.497V19.395h38.807l-3.83 10.937H98.202v9.197Zm165.581-20.134h38.039v10.937h-13.167v38.777H276.95V30.332h-13.167V19.395Zm43.095 49.714h11.979V19.395h-11.979v49.714ZM236.63 50.422l5.926-18.03 5.925 18.03H236.63Zm-1.536-31.027-17.41 49.714h12.802l2.54-7.75h19.06l2.54 7.75h12.801l-17.41-49.714h-14.923Zm-33.795 0h11.705v49.714h-8.779L184.474 42.12v26.99H172.77V19.395h8.778l19.751 26.987V19.395Zm-64.007 31.027 5.926-18.03 5.926 18.03h-11.852Zm-1.535-31.027-17.411 49.714h12.802l2.54-7.75h19.06l2.54 7.75h12.802l-17.411-49.714h-14.922Z" fill="#fff"/></svg>